<svg width="16" height="16" viewBox="0 0 16 16" fill="none" xmlns="http://www.w3.org/2000/svg">
<g opacity="0.32">
<path fill-rule="evenodd" clip-rule="evenodd" d="M1.33337 7.99954C1.33337 4.3202 4.32004 1.33287 8.00004 1.33287C11.6867 1.33287 14.6667 4.3202 14.6667 7.99954C14.6667 11.6802 11.6867 14.6662 8.00004 14.6662C4.32004 14.6662 1.33337 11.6802 1.33337 7.99954ZM7.41337 5.47287C7.41337 5.15354 7.68004 4.8862 8.00004 4.8862C8.32004 4.8862 8.58004 5.15354 8.58004 5.47287V8.41954C8.58004 8.7402 8.32004 8.99954 8.00004 8.99954C7.68004 8.99954 7.41337 8.7402 7.41337 8.41954V5.47287ZM8.00671 11.1202C7.68004 11.1202 7.42004 10.8535 7.42004 10.5335C7.42004 10.2135 7.68004 9.95354 8.00004 9.95354C8.32671 9.95354 8.58671 10.2135 8.58671 10.5335C8.58671 10.8535 8.32671 11.1202 8.00671 11.1202Z" fill="#9CA5B2"/>
</g>
</svg>
